700 208 2 0         
16 Autodesk AutoCAD 20 ASM 230.7.0.65535 NT 24 Tue Sep  9 13:26:03 2025 
1 9.999999999999999547e-07 1.000000000000000036e-10 
body $-1 -1 $-1 $2 $-1 $3 #
body $-1 -1 $-1 $4 $-1 $5 #
lump $-1 -1 $-1 $-1 $6 $0 #
transform $-1 -1 1 0 0 0 1 0 0 0 1 190.5 12.05000000000000071 0.5 1 no_rotate no_reflect no_shear #
lump $-1 -1 $-1 $-1 $7 $1 #
transform $-1 -1 1 0 0 0 1 0 0 0 1 -0.2999999999999999889 11.55000000000000071 0.5 1 no_rotate no_reflect no_shear #
shell $-1 -1 $-1 $-1 $-1 $8 $-1 $2 #
shell $-1 -1 $-1 $-1 $-1 $9 $-1 $4 #
face $10 -1 $-1 $11 $12 $6 $-1 $13 forward single #
face $14 -1 $-1 $15 $16 $7 $-1 $17 forward single #
color-adesk-attrib $-1 -1 $-1 $-1 $8 256 #
face $18 -1 $-1 $19 $20 $6 $-1 $21 reversed single #
loop $-1 -1 $-1 $-1 $22 $8 #
plane-surface $-1 -1 $-1 0 0 0.5 0 0 1 1 0 0 forward_v I I I I #
color-adesk-attrib $-1 -1 $-1 $-1 $9 256 #
face $23 -1 $-1 $24 $25 $7 $-1 $26 reversed single #
loop $-1 -1 $-1 $-1 $27 $9 #
plane-surface $-1 -1 $-1 0 0 0.5 0 0 1 1 0 0 forward_v I I I I #
color-adesk-attrib $-1 -1 $-1 $-1 $11 256 #
face $28 -1 $-1 $29 $30 $6 $-1 $31 reversed single #
loop $-1 -1 $-1 $-1 $32 $11 #
plane-surface $-1 -1 $-1 0 0 -0.5 0 0 1 1 0 0 forward_v I I I I #
coedge $-1 -1 $-1 $33 $34 $35 $36 forward $12 $-1 #
color-adesk-attrib $-1 -1 $-1 $-1 $15 256 #
face $37 -1 $-1 $38 $39 $7 $-1 $40 reversed single #
loop $-1 -1 $-1 $-1 $41 $15 #
plane-surface $-1 -1 $-1 0 0 -0.5 0 0 1 1 0 0 forward_v I I I I #
coedge $-1 -1 $-1 $42 $43 $44 $45 forward $16 $-1 #
color-adesk-attrib $-1 -1 $-1 $-1 $19 256 #
face $46 -1 $-1 $47 $48 $6 $-1 $49 reversed single #
loop $-1 -1 $-1 $-1 $50 $19 #
plane-surface $-1 -1 $-1 0 -0.5 0 0 1 -0 -0 0 1 forward_v I I I I #
coedge $-1 -1 $-1 $51 $52 $53 $54 forward $20 $-1 #
coedge $-1 -1 $-1 $55 $22 $56 $57 forward $12 $-1 #
coedge $-1 -1 $-1 $22 $55 $58 $59 forward $12 $-1 #
coedge $-1 -1 $-1 $60 $61 $22 $36 reversed $62 $-1 #
edge $63 -1 $-1 $64 -0.5 $65 0.5 $35 $66 forward @7 unknown #
color-adesk-attrib $-1 -1 $-1 $-1 $24 256 #
face $67 -1 $-1 $68 $69 $7 $-1 $70 reversed single #
loop $-1 -1 $-1 $-1 $71 $24 #
plane-surface $-1 -1 $-1 0 -11.55000000000000071 0 0 1 -0 -0 0 1 forward_v I I I I #
coedge $-1 -1 $-1 $72 $73 $74 $75 forward $25 $-1 #
coedge $-1 -1 $-1 $76 $27 $77 $78 forward $16 $-1 #
coedge $-1 -1 $-1 $27 $76 $79 $80 forward $16 $-1 #
coedge $-1 -1 $-1 $81 $82 $27 $45 reversed $83 $-1 #
edge $84 -1 $-1 $85 -11.55000000000000071 $86 11.55000000000000071 $44 $87 forward @7 unknown #
color-adesk-attrib $-1 -1 $-1 $-1 $29 256 #
face $88 -1 $-1 $89 $90 $6 $-1 $91 reversed single #
loop $-1 -1 $-1 $-1 $92 $29 #
plane-surface $-1 -1 $-1 -0.5 0 0 1 0 0 0 0 -1 forward_v I I I I #
coedge $-1 -1 $-1 $93 $58 $94 $95 forward $30 $-1 #
coedge $-1 -1 $-1 $96 $32 $93 $97 forward $20 $-1 #
coedge $-1 -1 $-1 $32 $96 $98 $99 forward $20 $-1 #
coedge $-1 -1 $-1 $61 $60 $32 $54 reversed $62 $-1 #
edge $100 -1 $-1 $101 -0.5 $102 0.5 $53 $103 forward @7 unknown #
coedge $-1 -1 $-1 $34 $33 $104 $105 forward $12 $-1 #
coedge $-1 -1 $-1 $106 $107 $33 $57 reversed $90 $-1 #
edge $108 -1 $-1 $65 -0.5 $109 0.5 $56 $110 forward @7 unknown #
coedge $-1 -1 $-1 $50 $111 $34 $59 reversed $30 $-1 #
edge $112 -1 $-1 $113 -0.5 $64 0.5 $58 $114 forward @7 unknown #
coedge $-1 -1 $-1 $53 $35 $111 $115 forward $62 $-1 #
coedge $-1 -1 $-1 $35 $53 $106 $116 reversed $62 $-1 #
loop $-1 -1 $-1 $-1 $60 $89 #
color-adesk-attrib $-1 -1 $-1 $-1 $36 256 #
vertex $-1 -1 $-1 $36 $117 #
vertex $-1 -1 $-1 $36 $118 #
straight-curve $-1 -1 $-1 0.5 0 0.5 0 1 0 I I #
color-adesk-attrib $-1 -1 $-1 $-1 $38 256 #
face $119 -1 $-1 $120 $121 $7 $-1 $122 reversed single #
loop $-1 -1 $-1 $-1 $123 $38 #
plane-surface $-1 -1 $-1 -0.2999999999999999889 0 0 1 0 0 0 0 -1 forward_v I I I I #
coedge $-1 -1 $-1 $124 $79 $125 $126 forward $39 $-1 #
coedge $-1 -1 $-1 $127 $41 $124 $128 forward $25 $-1 #
coedge $-1 -1 $-1 $41 $127 $129 $130 forward $25 $-1 #
coedge $-1 -1 $-1 $82 $81 $41 $75 reversed $83 $-1 #
edge $131 -1 $-1 $132 -11.55000000000000071 $133 11.55000000000000071 $74 $134 forward @7 unknown #
coedge $-1 -1 $-1 $43 $42 $135 $136 forward $16 $-1 #
coedge $-1 -1 $-1 $137 $138 $42 $78 reversed $121 $-1 #
edge $139 -1 $-1 $86 -0.2999999999999999889 $140 0.2999999999999999889 $77 $141 forward @7 unknown #
coedge $-1 -1 $-1 $71 $142 $43 $80 reversed $39 $-1 #
edge $143 -1 $-1 $144 -0.2999999999999999889 $85 0.2999999999999999889 $79 $145 forward @7 unknown #
coedge $-1 -1 $-1 $74 $44 $142 $146 forward $83 $-1 #
coedge $-1 -1 $-1 $44 $74 $137 $147 reversed $83 $-1 #
loop $-1 -1 $-1 $-1 $81 $120 #
color-adesk-attrib $-1 -1 $-1 $-1 $45 256 #
vertex $-1 -1 $-1 $45 $148 #
vertex $-1 -1 $-1 $45 $149 #
straight-curve $-1 -1 $-1 0.2999999999999999889 0 0.5 0 1 0 I I #
color-adesk-attrib $-1 -1 $-1 $-1 $47 256 #
face $150 -1 $-1 $-1 $62 $6 $-1 $151 reversed single #
loop $-1 -1 $-1 $-1 $106 $47 #
plane-surface $-1 -1 $-1 0 0.5 0 0 -1 0 0 0 -1 forward_v I I I I #
coedge $-1 -1 $-1 $152 $104 $107 $153 forward $48 $-1 #
coedge $-1 -1 $-1 $111 $50 $51 $97 reversed $30 $-1 #
coedge $-1 -1 $-1 $104 $152 $50 $95 reversed $48 $-1 #
edge $154 -1 $-1 $113 -0.5 $155 0.5 $94 $156 forward @7 unknown #
coedge $-1 -1 $-1 $52 $51 $152 $157 forward $20 $-1 #
edge $158 -1 $-1 $102 -0.5 $155 0.5 $93 $159 forward @7 unknown #
coedge $-1 -1 $-1 $107 $106 $52 $99 reversed $90 $-1 #
edge $160 -1 $-1 $161 -0.5 $101 0.5 $98 $162 forward @7 unknown #
color-adesk-attrib $-1 -1 $-1 $-1 $54 256 #
vertex $-1 -1 $-1 $54 $163 #
vertex $-1 -1 $-1 $115 $164 #
straight-curve $-1 -1 $-1 0.5 0 -0.5 0 -1 0 I I #
coedge $-1 -1 $-1 $92 $94 $55 $105 reversed $48 $-1 #
edge $165 -1 $-1 $109 -0.5 $113 0.5 $104 $166 forward @7 unknown #
coedge $-1 -1 $-1 $98 $56 $61 $116 forward $90 $-1 #
coedge $-1 -1 $-1 $56 $98 $92 $153 reversed $90 $-1 #
color-adesk-attrib $-1 -1 $-1 $-1 $57 256 #
vertex $-1 -1 $-1 $57 $167 #
straight-curve $-1 -1 $-1 0 0.5 0.5 -1 0 0 I I #
coedge $-1 -1 $-1 $58 $93 $60 $115 reversed $30 $-1 #
color-adesk-attrib $-1 -1 $-1 $-1 $59 256 #
vertex $-1 -1 $-1 $105 $168 #
straight-curve $-1 -1 $-1 0 -0.5 0.5 1 0 0 I I #
edge $169 -1 $-1 $64 -0.5 $102 0.5 $60 $170 forward @7 unknown #
edge $171 -1 $-1 $65 -0.5 $101 0.5 $61 $172 forward @7 unknown #
point $-1 -1 $-1 0.5 -0.5 0.5 #
point $-1 -1 $-1 0.5 0.5 0.5 #
color-adesk-attrib $-1 -1 $-1 $-1 $68 256 #
face $173 -1 $-1 $-1 $83 $7 $-1 $174 reversed single #
loop $-1 -1 $-1 $-1 $137 $68 #
plane-surface $-1 -1 $-1 0 11.55000000000000071 0 0 -1 0 0 0 -1 forward_v I I I I #
coedge $-1 -1 $-1 $175 $135 $138 $176 forward $69 $-1 #
coedge $-1 -1 $-1 $142 $71 $72 $128 reversed $39 $-1 #
coedge $-1 -1 $-1 $135 $175 $71 $126 reversed $69 $-1 #
edge $177 -1 $-1 $144 -0.5 $178 0.5 $125 $179 forward @7 unknown #
coedge $-1 -1 $-1 $73 $72 $175 $180 forward $25 $-1 #
edge $181 -1 $-1 $133 -0.2999999999999999889 $178 0.2999999999999999889 $124 $182 forward @7 unknown #
coedge $-1 -1 $-1 $138 $137 $73 $130 reversed $121 $-1 #
edge $183 -1 $-1 $184 -0.2999999999999999889 $132 0.2999999999999999889 $129 $185 forward @7 unknown #
color-adesk-attrib $-1 -1 $-1 $-1 $75 256 #
vertex $-1 -1 $-1 $75 $186 #
vertex $-1 -1 $-1 $146 $187 #
straight-curve $-1 -1 $-1 0.2999999999999999889 0 -0.5 0 -1 0 I I #
coedge $-1 -1 $-1 $123 $125 $76 $136 reversed $69 $-1 #
edge $188 -1 $-1 $140 -11.55000000000000071 $144 11.55000000000000071 $135 $189 forward @7 unknown #
coedge $-1 -1 $-1 $129 $77 $82 $147 forward $121 $-1 #
coedge $-1 -1 $-1 $77 $129 $123 $176 reversed $121 $-1 #
color-adesk-attrib $-1 -1 $-1 $-1 $78 256 #
vertex $-1 -1 $-1 $78 $190 #
straight-curve $-1 -1 $-1 0 11.55000000000000071 0.5 -1 0 0 I I #
coedge $-1 -1 $-1 $79 $124 $81 $146 reversed $39 $-1 #
color-adesk-attrib $-1 -1 $-1 $-1 $80 256 #
vertex $-1 -1 $-1 $136 $191 #
straight-curve $-1 -1 $-1 0 -11.55000000000000071 0.5 1 0 0 I I #
edge $192 -1 $-1 $85 -0.5 $133 0.5 $81 $193 forward @7 unknown #
edge $194 -1 $-1 $86 -0.5 $132 0.5 $82 $195 forward @7 unknown #
point $-1 -1 $-1 0.2999999999999999889 -11.55000000000000071 0.5 #
point $-1 -1 $-1 0.2999999999999999889 11.55000000000000071 0.5 #
color-adesk-attrib $-1 -1 $-1 $-1 $89 256 #
plane-surface $-1 -1 $-1 0.5 0 0 -1 0 0 0 -0 1 forward_v I I I I #
coedge $-1 -1 $-1 $94 $92 $96 $157 reversed $48 $-1 #
edge $196 -1 $-1 $109 -0.5 $161 0.5 $107 $197 forward @7 unknown #
color-adesk-attrib $-1 -1 $-1 $-1 $95 256 #
vertex $-1 -1 $-1 $157 $198 #
straight-curve $-1 -1 $-1 -0.5 -0.5 0 0 0 -1 I I #
edge $199 -1 $-1 $155 -0.5 $161 0.5 $152 $200 forward @7 unknown #
color-adesk-attrib $-1 -1 $-1 $-1 $97 256 #
straight-curve $-1 -1 $-1 0 -0.5 -0.5 -1 0 0 I I #
color-adesk-attrib $-1 -1 $-1 $-1 $99 256 #
vertex $-1 -1 $-1 $99 $201 #
straight-curve $-1 -1 $-1 0 0.5 -0.5 1 0 0 I I #
point $-1 -1 $-1 0.5 0.5 -0.5 #
point $-1 -1 $-1 0.5 -0.5 -0.5 #
color-adesk-attrib $-1 -1 $-1 $-1 $105 256 #
straight-curve $-1 -1 $-1 -0.5 0 0.5 0 -1 0 I I #
point $-1 -1 $-1 -0.5 0.5 0.5 #
point $-1 -1 $-1 -0.5 -0.5 0.5 #
color-adesk-attrib $-1 -1 $-1 $-1 $115 256 #
straight-curve $-1 -1 $-1 0.5 -0.5 0 0 0 -1 I I #
color-adesk-attrib $-1 -1 $-1 $-1 $116 256 #
straight-curve $-1 -1 $-1 0.5 0.5 0 0 0 -1 I I #
color-adesk-attrib $-1 -1 $-1 $-1 $120 256 #
plane-surface $-1 -1 $-1 0.2999999999999999889 0 0 -1 0 0 0 -0 1 forward_v I I I I #
coedge $-1 -1 $-1 $125 $123 $127 $180 reversed $69 $-1 #
edge $202 -1 $-1 $140 -0.5 $184 0.5 $138 $203 forward @7 unknown #
color-adesk-attrib $-1 -1 $-1 $-1 $126 256 #
vertex $-1 -1 $-1 $180 $204 #
straight-curve $-1 -1 $-1 -0.2999999999999999889 -11.55000000000000071 0 0 0 -1 I I #
edge $205 -1 $-1 $178 -11.55000000000000071 $184 11.55000000000000071 $175 $206 forward @7 unknown #
color-adesk-attrib $-1 -1 $-1 $-1 $128 256 #
straight-curve $-1 -1 $-1 0 -11.55000000000000071 -0.5 -1 0 0 I I #
color-adesk-attrib $-1 -1 $-1 $-1 $130 256 #
vertex $-1 -1 $-1 $130 $207 #
straight-curve $-1 -1 $-1 0 11.55000000000000071 -0.5 1 0 0 I I #
point $-1 -1 $-1 0.2999999999999999889 11.55000000000000071 -0.5 #
point $-1 -1 $-1 0.2999999999999999889 -11.55000000000000071 -0.5 #
color-adesk-attrib $-1 -1 $-1 $-1 $136 256 #
straight-curve $-1 -1 $-1 -0.2999999999999999889 0 0.5 0 -1 0 I I #
point $-1 -1 $-1 -0.2999999999999999889 11.55000000000000071 0.5 #
point $-1 -1 $-1 -0.2999999999999999889 -11.55000000000000071 0.5 #
color-adesk-attrib $-1 -1 $-1 $-1 $146 256 #
straight-curve $-1 -1 $-1 0.2999999999999999889 -11.55000000000000071 0 0 0 -1 I I #
color-adesk-attrib $-1 -1 $-1 $-1 $147 256 #
straight-curve $-1 -1 $-1 0.2999999999999999889 11.55000000000000071 0 0 0 -1 I I #
color-adesk-attrib $-1 -1 $-1 $-1 $153 256 #
straight-curve $-1 -1 $-1 -0.5 0.5 0 0 0 -1 I I #
point $-1 -1 $-1 -0.5 -0.5 -0.5 #
color-adesk-attrib $-1 -1 $-1 $-1 $157 256 #
straight-curve $-1 -1 $-1 -0.5 0 -0.5 0 1 0 I I #
point $-1 -1 $-1 -0.5 0.5 -0.5 #
color-adesk-attrib $-1 -1 $-1 $-1 $176 256 #
straight-curve $-1 -1 $-1 -0.2999999999999999889 11.55000000000000071 0 0 0 -1 I I #
point $-1 -1 $-1 -0.2999999999999999889 -11.55000000000000071 -0.5 #
color-adesk-attrib $-1 -1 $-1 $-1 $180 256 #
straight-curve $-1 -1 $-1 -0.2999999999999999889 0 -0.5 0 1 0 I I #
point $-1 -1 $-1 -0.2999999999999999889 11.55000000000000071 -0.5 #
